<?xml version="1.0" encoding="UTF-8"?>
<svg xmlns="http://www.w3.org/2000/svg" xmlns:xlink="http://www.w3.org/1999/xlink" width="512" height="512" viewBox="0 0 512 512">
<defs>
<filter id="filter-remove-color" x="0%" y="0%" width="100%" height="100%">
<feColorMatrix color-interpolation-filters="sRGB" values="0 0 0 0 1 0 0 0 0 1 0 0 0 0 1 0 0 0 1 0" />
</filter>
<linearGradient id="linear-pattern-0" gradientUnits="userSpaceOnUse" x1="205.409439" y1="47.871067" x2="263.424286" y2="45.845146" gradientTransform="matrix(-0.76347, 0, 0, 0.76347, 312.998383, -2.875627)">
<stop offset="0.716002" stop-color="rgb(78.039216%, 80.392157%, 83.921569%)" stop-opacity="1"/>
<stop offset="1" stop-color="rgb(73.333333%, 76.078431%, 80.784314%)" stop-opacity="1"/>
</linearGradient>
<mask id="mask-0">
<g filter="url(#filter-remove-color)">
<rect x="-51.2" y="-51.2" width="614.4" height="614.4" fill="rgb(0%, 0%, 0%)" fill-opacity="0.988737"/>
</g>
</mask>
<linearGradient id="linear-pattern-1" gradientUnits="userSpaceOnUse" x1="237.190643" y1="23.189436" x2="229.559555" y2="62.448006" gradientTransform="matrix(-0.76347, 0, 0, 0.76347, 312.998383, -2.875627)">
<stop offset="0.698913" stop-color="rgb(87.45098%, 79.215686%, 79.215686%)" stop-opacity="1"/>
<stop offset="1" stop-color="rgb(91.372549%, 75.294118%, 75.294118%)" stop-opacity="1"/>
</linearGradient>
<clipPath id="clip-0">
<rect x="0" y="0" width="205" height="205"/>
</clipPath>
<g id="source-11" clip-path="url(#clip-0)">
<path fill-rule="nonzero" fill="url(#linear-pattern-1)" d="M 148.277344 51.078125 C 148.386719 50.539062 152.535156 33.613281 147.902344 24.453125 C 145.738281 20.175781 144.863281 19.042969 143.5625 17.628906 C 142.070312 16.011719 140.742188 14.835938 134.964844 11.300781 C 128.628906 7.421875 123.125 7.734375 120.875 9.871094 C 119.277344 11.390625 119.558594 13.667969 119.605469 14.695312 C 119.710938 17.175781 119.042969 26.972656 123.03125 34.234375 C 124.628906 37.144531 127.28125 40.84375 130.464844 43.777344 C 135.230469 48.167969 140.585938 51.320312 140.585938 51.320312 C 140.585938 51.320312 143.535156 48.222656 148.277344 51.078125 Z M 148.277344 51.078125 "/>
</g>
<linearGradient id="linear-pattern-2" gradientUnits="userSpaceOnUse" x1="303.848999" y1="266.151855" x2="310.985992" y2="184.5755" gradientTransform="matrix(-0.76347, 0, 0, 0.76347, 312.998383, -2.875627)">
<stop offset="0.564867" stop-color="rgb(78.039216%, 80.392157%, 83.921569%)" stop-opacity="1"/>
<stop offset="1" stop-color="rgb(78.823529%, 81.568627%, 84.705882%)" stop-opacity="1"/>
</linearGradient>
<linearGradient id="linear-pattern-3" gradientUnits="userSpaceOnUse" x1="205.246033" y1="214.971924" x2="245.406693" y2="182.450439" gradientTransform="matrix(-0.76347, 0, 0, 0.76347, 312.998383, -2.875627)">
<stop offset="0.387393" stop-color="rgb(78.039216%, 80.392157%, 83.921569%)" stop-opacity="1"/>
<stop offset="1" stop-color="rgb(72.54902%, 77.647059%, 81.568627%)" stop-opacity="1"/>
</linearGradient>
<radialGradient id="radial-pattern-0" gradientUnits="userSpaceOnUse" cx="182.274414" cy="82.24205" fx="182.274414" fy="82.24205" r="5.300084" gradientTransform="matrix(-0.76347, 0, 0, 0.76347, 312.998383, -2.875627)">
<stop offset="0.301961" stop-color="rgb(82.352941%, 9.411765%, 81.568627%)" stop-opacity="1"/>
<stop offset="1" stop-color="rgb(94.509804%, 33.72549%, 80.392157%)" stop-opacity="0"/>
</radialGradient>
<radialGradient id="radial-pattern-1" gradientUnits="userSpaceOnUse" cx="182.274414" cy="82.24205" fx="182.274414" fy="82.24205" r="5.300084" gradientTransform="matrix(-0.76347, 0, 0, 0.76347, 312.998383, -2.875627)">
<stop offset="0.334377" stop-color="rgb(38.431373%, 38.431373%, 38.431373%)" stop-opacity="0.796511"/>
<stop offset="0.865671" stop-color="rgb(6.666667%, 14.901961%, 25.490196%)" stop-opacity="0"/>
</radialGradient>
</defs>
<path fill-rule="nonzero" fill="url(#linear-pattern-0)" d="M 148.59375 63.277344 C 148.59375 63.277344 159.40625 62.035156 155.226562 40.515625 C 153.660156 32.449219 154.402344 28.273438 146.191406 17.019531 C 146.191406 17.019531 141.285156 12.75 135.234375 8.871094 C 130.722656 5.980469 125.574219 3.300781 121.351562 2.78125 C 119.796875 2.585938 117.898438 2.390625 115.957031 2.632812 C 115.234375 2.726562 114.03125 3.144531 113.398438 3.796875 C 112.773438 4.441406 112.335938 4.953125 112.183594 5.558594 C 112.183594 5.558594 111.667969 6.183594 111.953125 9.195312 C 112.101562 10.765625 112.65625 13.671875 113.210938 16.691406 C 113.710938 19.414062 114.765625 23.839844 116.683594 28.507812 C 117.589844 30.722656 118.695312 32.992188 120.027344 35.160156 C 121.578125 37.683594 123.289062 40.175781 125.367188 42.308594 "/>
<path fill-rule="nonzero" fill="rgb(85.882353%, 87.058824%, 89.019608%)" fill-opacity="1" d="M 186.585938 86.914062 C 186.585938 86.914062 202.535156 85.605469 198.1875 71.378906 C 198.1875 71.378906 197.664062 69.398438 180.808594 63.675781 C 180.808594 63.675781 168.394531 67.789062 167.949219 58.492188 L 155.832031 54.785156 C 155.832031 54.785156 155.019531 56.351562 150.5 58.117188 L 139.535156 50.226562 C 139.535156 50.226562 136.015625 48.542969 134.464844 48.253906 C 134.464844 48.253906 145.527344 71.390625 135.59375 81.441406 C 137.035156 82.65625 151.992188 81.847656 154.425781 82.488281 M 186.585938 86.914062 C 186.585938 86.914062 202.535156 85.605469 198.1875 71.378906 C 198.1875 71.378906 199.203125 69.9375 182.347656 64.214844 C 182.347656 64.214844 168.394531 67.789062 167.949219 58.492188 L 155.832031 54.785156 C 155.832031 54.785156 155.019531 56.351562 150.5 58.117188 L 139.535156 50.226562 C 139.535156 50.226562 136.015625 48.542969 134.464844 48.253906 C 134.464844 48.253906 145.527344 71.390625 135.59375 81.441406 C 137.035156 82.65625 151.992188 81.847656 154.425781 82.488281 "/>
<path fill-rule="nonzero" fill="rgb(85.882353%, 87.058824%, 89.019608%)" fill-opacity="1" d="M 155.070312 54.570312 L 167.183594 58.277344 C 167.183594 58.277344 177.363281 48.054688 180.808594 63.675781 C 180.808594 63.675781 196.585938 69.074219 197.425781 71.164062 L 198.152344 75.019531 C 198.144531 74.867188 205.109375 73.707031 197.113281 64.488281 C 197.113281 64.488281 184.882812 52.078125 170.816406 46.222656 C 170.816406 46.222656 158.871094 42.632812 153.933594 43.496094 C 153.863281 45.515625 155.988281 45.929688 155.070312 54.570312 Z M 155.070312 54.570312 "/>
<path fill-rule="nonzero" fill="rgb(85.882353%, 87.058824%, 89.019608%)" fill-opacity="1" d="M 155.070312 54.570312 L 167.183594 58.277344 C 167.183594 58.277344 177.363281 48.054688 180.808594 63.675781 C 180.808594 63.675781 196.585938 69.074219 197.425781 71.164062 L 198.152344 75.019531 C 198.144531 74.867188 205.109375 73.707031 197.113281 64.488281 C 197.113281 64.488281 184.882812 52.078125 170.816406 46.222656 C 170.816406 46.222656 158.871094 42.632812 153.933594 43.496094 C 153.863281 45.515625 155.988281 45.929688 155.070312 54.570312 Z M 155.070312 54.570312 "/>
<path fill-rule="nonzero" fill="rgb(85.882353%, 87.058824%, 89.019608%)" fill-opacity="1" d="M 148.59375 63.277344 C 148.59375 63.277344 159.40625 62.035156 155.226562 40.515625 C 153.660156 32.449219 154.402344 28.273438 146.191406 17.019531 C 146.191406 17.019531 138.949219 8.445312 129.074219 7.222656 C 127.515625 7.03125 124.617188 6.828125 122.6875 7.46875 C 121.3125 7.921875 120.351562 8.585938 119.582031 9.511719 C 119.582031 9.511719 117.695312 11.496094 118.816406 19.941406 C 119.550781 25.503906 121.417969 33.445312 128.808594 44.210938 "/>
<g mask="url(#mask-0)">
<use xlink:href="#source-11"/>
</g>
<path fill-rule="nonzero" fill="rgb(85.882353%, 87.058824%, 89.019608%)" fill-opacity="1" d="M 41.984375 166.527344 C 41.984375 166.527344 53.125 186.511719 34.75 189.609375 C 34.75 189.609375 27.441406 189.292969 19.9375 186.355469 C 16.382812 184.960938 14.09375 183.222656 10.71875 180.574219 C 8.460938 178.601562 4.433594 175.121094 4.488281 170.261719 C 4.507812 168.746094 4.375 168.496094 5.25 166.570312 C 5.25 166.570312 7.039062 164.339844 13.582031 164.9375 C 15.015625 165.070312 17.78125 165.925781 19.78125 166.550781 C 22.054688 167.355469 31.359375 171.175781 31.53125 176.34375 C 31.53125 176.34375 29.179688 161.585938 41.984375 166.527344 Z M 41.984375 166.527344 "/>
<path fill-rule="nonzero" fill="url(#linear-pattern-2)" d="M 78.464844 161.804688 C 78.464844 161.804688 74.308594 164.832031 68.453125 185.390625 C 68.453125 185.390625 68.371094 186.023438 74.171875 186.140625 C 78.574219 186.226562 79.484375 186.058594 88.382812 185.46875 C 90.101562 185.351562 93.527344 185.175781 95.628906 185.203125 C 95.628906 185.203125 100.066406 184.691406 102.28125 186.757812 L 104.6875 189 C 105.300781 189.570312 106.511719 191.015625 107.734375 192.277344 C 109.027344 193.613281 109.191406 193.550781 109.554688 194.59375 C 109.554688 194.59375 109.296875 195.484375 108.003906 195.726562 C 107.449219 195.832031 106.617188 195.890625 105.746094 195.933594 C 103.71875 196.03125 100.746094 195.917969 98.234375 195.898438 C 93.40625 195.863281 84.019531 196.144531 77.675781 195.570312 C 63.460938 194.285156 58.449219 192.695312 51.867188 189.472656 C 51.542969 189.144531 51.128906 175.679688 55.152344 173.035156 C 55.152344 173.035156 50.769531 170.761719 47.035156 158.40625 C 47.035156 158.40625 66.125 120.207031 78.464844 161.804688 Z M 78.464844 161.804688 "/>
<path fill-rule="nonzero" fill="url(#linear-pattern-3)" d="M 158.710938 122.148438 C 158.710938 122.148438 160.878906 124.652344 160.253906 128.605469 C 159.839844 131.230469 161.882812 127.601562 159.574219 131.867188 C 157.53125 135.644531 153.59375 145.480469 150.074219 151.328125 C 150.074219 151.328125 146.34375 157.738281 145.386719 160.363281 C 144.398438 163.089844 142.660156 172.132812 142.273438 174.773438 C 142.167969 175.484375 142.082031 182.617188 143.363281 185.40625 L 144.164062 186.640625 L 145.128906 187.96875 L 147.359375 188.558594 L 149.613281 189.007812 L 151.871094 189.777344 L 152.867188 190.644531 L 153.316406 191.582031 C 153.316406 191.582031 154.355469 193.890625 141.117188 194.050781 C 141.117188 194.050781 136.175781 185.515625 131.691406 177.234375 C 131.691406 177.234375 134.003906 173.960938 128.160156 161.386719 C 126.253906 157.289062 127.542969 154.632812 127.21875 150.632812 C 126.65625 143.714844 120.074219 141.609375 121.421875 136.96875 C 121.585938 136.398438 128.191406 73.300781 158.710938 122.148438 Z M 158.710938 122.148438 "/>
<path fill-rule="nonzero" fill="rgb(85.882353%, 87.058824%, 89.019608%)" fill-opacity="1" d="M 162.378906 78.949219 C 162.378906 78.949219 168.789062 81.710938 172.523438 86.058594 C 174.46875 88.324219 177.511719 92.472656 177.222656 95.285156 C 177.222656 95.285156 178.578125 108.460938 170.667969 122.269531 C 170.667969 122.269531 166.445312 130.222656 162.199219 135.664062 C 160.789062 137.46875 155.9375 141.949219 154.53125 142.65625 C 149.054688 145.40625 147.691406 147.710938 138.710938 148.371094 C 132.464844 148.828125 133.0625 148.835938 129.9375 150.089844 C 128.167969 150.796875 119.589844 154.710938 116.0625 156.785156 C 102.121094 164.972656 78.210938 180.996094 70.367188 180.058594 C 68.90625 180.167969 48.488281 183.496094 34.492188 179.769531 C 28.21875 178.101562 27.359375 171.75 22.949219 168.695312 C 19.46875 162.15625 10.355469 141.367188 21.15625 123.664062 C 22.839844 120.863281 34.535156 102.675781 69.070312 91.023438 C 75.382812 88.894531 106.785156 81.082031 134.066406 80.625 C 134.683594 80.886719 144.675781 73.0625 162.378906 78.949219 Z M 162.378906 78.949219 "/>
<path fill-rule="nonzero" fill="rgb(85.882353%, 87.058824%, 89.019608%)" fill-opacity="1" d="M 84.800781 162.128906 C 84.800781 162.128906 72.074219 168.449219 66.21875 189.007812 C 66.21875 189.007812 68.066406 189.742188 73.828125 190.457031 C 78.472656 191.03125 85.363281 190.925781 94.117188 191.113281 C 95.839844 191.148438 97.195312 191.101562 98.289062 191.164062 C 98.289062 191.164062 99.027344 191.222656 99.535156 191.230469 C 100.347656 191.238281 102.265625 193 103.457031 194.042969 C 104.074219 194.585938 104.5 195.015625 105.34375 195.949219 C 105.953125 196.625 107.027344 197.890625 107.691406 198.703125 C 108.214844 199.347656 109.972656 200.96875 109.386719 201.988281 C 109.386719 201.988281 108.46875 202.722656 106.585938 202.640625 C 106.410156 202.632812 105.753906 202.566406 104.1875 202.507812 C 103.484375 202.480469 102.523438 202.386719 101.441406 202.355469 C 99.855469 202.3125 98.320312 202.175781 96.28125 202.101562 C 94.890625 202.054688 93.128906 201.945312 91.578125 201.878906 C 76.210938 201.222656 51.25 199.007812 47.371094 196.039062 C 47.21875 195.886719 46.046875 193.984375 45.882812 191.878906 C 45.820312 191.046875 45.828125 190.175781 46.054688 189.425781 C 46.738281 187.152344 46.378906 187.859375 46.738281 187.152344 C 48.074219 184.53125 47.609375 185.28125 48.074219 184.53125 C 49.457031 182.296875 49.480469 182.472656 50.199219 181.5625 C 50.199219 181.5625 51.828125 171.5625 45.328125 157.757812 C 45.328125 157.757812 48.835938 147.988281 56.199219 143.523438 C 64.898438 138.242188 78.113281 139.597656 84.800781 162.128906 Z M 84.800781 162.128906 "/>
<path fill-rule="nonzero" fill="rgb(85.882353%, 87.058824%, 89.019608%)" fill-opacity="1" d="M 158.710938 122.148438 C 158.710938 122.148438 160.066406 130.308594 157.300781 133.203125 C 152.144531 138.59375 143.027344 148.769531 140.035156 161.472656 C 140.035156 161.472656 139.210938 170.882812 139.207031 173.960938 C 139.203125 177.289062 139.308594 181.761719 141.96875 187.96875 L 150.457031 190.730469 L 152.964844 192.140625 L 154.609375 193.957031 C 155.453125 195.378906 155.195312 197.816406 154.160156 198.824219 C 154.160156 198.824219 153.851562 201.601562 140.613281 201.765625 C 140.613281 201.765625 128.082031 202.425781 127.269531 190.8125 C 127.269531 190.8125 126.402344 177.59375 125.730469 164.90625 C 125.488281 160.390625 123.410156 155.722656 123.085938 151.722656 C 122.523438 144.808594 120.074219 141.609375 121.421875 136.96875 C 121.585938 136.398438 128.191406 73.300781 158.710938 122.148438 Z M 158.710938 122.148438 "/>
<path fill-rule="nonzero" fill="rgb(85.882353%, 87.058824%, 89.019608%)" fill-opacity="1" d="M 181.570312 63.890625 C 181.570312 63.890625 178.960938 47.492188 166.703125 58.15625 C 166.703125 58.15625 165.710938 67.816406 181.570312 63.890625 Z M 181.570312 63.890625 "/>
<path fill-rule="nonzero" fill="rgb(82.745098%, 37.254902%, 55.294118%)" fill-opacity="1" d="M 179.730469 62.988281 C 179.191406 58.484375 176.476562 55.5625 174.3125 55.476562 C 171.109375 55.347656 167.738281 59.144531 167.542969 59.144531 C 167.542969 59.144531 168.527344 64.152344 173.441406 64.265625 C 174.980469 64.300781 177.449219 64.207031 179.730469 62.988281 Z M 179.730469 62.988281 "/>
<path fill-rule="nonzero" fill="rgb(87.058824%, 52.941176%, 66.666667%)" fill-opacity="1" d="M 178.425781 62.242188 C 178.425781 62.242188 178.566406 59.585938 177.515625 57.894531 C 176.292969 55.933594 173.441406 55.191406 168.992188 59.402344 C 168.992188 59.402344 169.402344 59.980469 169.78125 60.769531 C 170.273438 61.800781 170.679688 63.035156 172.566406 63.328125 C 173.839844 63.527344 176.042969 63.320312 178.425781 62.242188 Z M 178.425781 62.242188 "/>
<path fill-rule="nonzero" fill="rgb(95.686275%, 84.313725%, 89.019608%)" fill-opacity="1" stroke-width="0.332" stroke-linecap="round" stroke-linejoin="round" stroke="rgb(0%, 0%, 0%)" stroke-opacity="1" stroke-miterlimit="4" d="M 187.817354 82.242511 C 187.817354 85.302144 185.335879 87.788734 182.276247 87.788734 C 179.211498 87.788734 176.730024 85.302144 176.730024 82.242511 C 176.730024 79.177762 179.211498 76.696288 182.276247 76.696288 C 185.335879 76.696288 187.817354 79.177762 187.817354 82.242511 Z M 187.817354 82.242511 " transform="matrix(-0.76347, 0, 0, 0.76347, 312.998383, -2.875627)"/>
<path fill-rule="nonzero" fill="url(#radial-pattern-0)" d="M 169.789062 59.914062 C 169.789062 62.148438 171.601562 63.960938 173.835938 63.960938 C 176.070312 63.960938 177.882812 62.148438 177.882812 59.914062 C 177.882812 57.679688 176.070312 55.867188 173.835938 55.867188 C 171.601562 55.867188 169.789062 57.679688 169.789062 59.914062 Z M 169.789062 59.914062 "/>
<path fill-rule="nonzero" fill="url(#radial-pattern-1)" d="M 169.789062 59.914062 C 169.789062 62.148438 171.601562 63.960938 173.835938 63.960938 C 176.070312 63.960938 177.882812 62.148438 177.882812 59.914062 C 177.882812 57.679688 176.070312 55.867188 173.835938 55.867188 C 171.601562 55.867188 169.789062 57.679688 169.789062 59.914062 Z M 169.789062 59.914062 "/>
<path fill-rule="nonzero" fill="rgb(0%, 0%, 0%)" fill-opacity="1" d="M 172.460938 59.710938 C 172.460938 60.609375 173.1875 61.332031 174.082031 61.332031 C 174.976562 61.332031 175.703125 60.609375 175.703125 59.710938 C 175.703125 58.816406 174.976562 58.09375 174.082031 58.09375 C 173.1875 58.09375 172.460938 58.816406 172.460938 59.710938 Z M 172.460938 59.710938 "/>
<path fill-rule="nonzero" fill="rgb(85.882353%, 87.058824%, 89.019608%)" fill-opacity="1" d="M 179.75 63.011719 C 179.75 63.011719 179.503906 60.253906 178.171875 58.109375 C 176.332031 55.148438 172.707031 53.113281 167.542969 59.144531 C 167.542969 59.144531 168.316406 59.558594 169.507812 59.457031 C 169.507812 59.457031 176.644531 51.777344 178.066406 62.011719 Z M 179.75 63.011719 "/>
<path fill-rule="nonzero" fill="rgb(85.882353%, 87.058824%, 89.019608%)" fill-opacity="1" d="M 167.542969 59.144531 C 167.542969 59.144531 168.757812 67.527344 178.960938 63.496094 C 179.285156 63.367188 179.183594 64.023438 179.730469 62.988281 L 178.074219 62.007812 C 178.074219 62.007812 170.675781 66.570312 169.507812 59.457031 C 169.507812 59.457031 168.246094 58.894531 167.542969 59.144531 Z M 167.542969 59.144531 "/>
<path fill-rule="nonzero" fill="rgb(85.882353%, 87.058824%, 89.019608%)" fill-opacity="1" d="M 179.75 63.011719 C 179.75 63.011719 179.503906 60.253906 178.171875 58.109375 C 176.332031 55.148438 172.707031 53.113281 167.542969 59.144531 C 167.542969 59.144531 168.316406 59.558594 169.507812 59.457031 C 169.507812 59.457031 176.644531 51.777344 178.066406 62.011719 Z M 179.75 63.011719 "/>
<path fill-rule="nonzero" fill="rgb(85.882353%, 87.058824%, 89.019608%)" fill-opacity="1" d="M 167.542969 59.144531 C 167.542969 59.144531 168.757812 67.527344 178.960938 63.496094 C 179.285156 63.367188 179.183594 64.023438 179.730469 62.988281 L 178.074219 62.007812 C 178.074219 62.007812 170.675781 66.570312 169.507812 59.457031 C 169.507812 59.457031 168.246094 58.894531 167.542969 59.144531 Z M 167.542969 59.144531 "/>
<path fill-rule="nonzero" fill="rgb(90.196078%, 67.843137%, 83.921569%)" fill-opacity="1" d="M 200.882812 70.917969 C 200.882812 70.917969 198.0625 71.382812 197.578125 71.6875 C 197.546875 72.019531 198.140625 72.335938 198.019531 74.953125 C 198.019531 74.953125 199.417969 75.539062 200.667969 73.070312 C 200.667969 73.070312 201.25 71.800781 200.882812 70.917969 Z M 200.882812 70.917969 "/>
</svg>
